<svg version="1" xmlns="http://www.w3.org/2000/svg" width="933.333" height="933.333" viewBox="0 0 700.000000 700.000000"><path d="M89.4 78.4c-4.4 1.9-10.2 8.3-11.5 12.5-.7 2.5-.9 85.8-.7 261.1l.3 257.5 2.7 3.8c1.4 2.2 4.3 5.1 6.5 6.5l3.8 2.7 258.4.3 258.3.2 4.7-2.5c2.5-1.4 6-4.5 7.6-6.8l3-4.2V90.4l-2.5-3.7c-1.4-2.1-4.3-5-6.4-6.5l-3.9-2.7-258.6-.2C136 77.1 92 77.3 89.4 78.4zm192.7 209.7c34.9 29.2 65.2 54.8 67.3 56.9 3.5 3.5 3.8 4.2 2.9 6.3-.6 1.4-31 27.5-67.5 58.1-67.4 56.5-69.2 57.8-72.6 54.4-.9-.9-1.2-7.9-1.2-25.4v-24.2l20.3-16.9c39.9-33.4 55.2-46.4 55.5-47.1.1-.4-16.9-15.1-37.8-32.6l-38-31.9v-24.2c0-17.4.3-24.4 1.2-25.3 3.5-3.5 5.2-2.2 69.9 51.9zm205.7 135.1c1.7 1.7 1.7 38.9 0 40.6-1.7 1.7-131.9 1.7-133.6 0-1.7-1.7-1.7-38.9 0-40.6 1.7-1.7 131.9-1.7 133.6 0z"/></svg>